<svg version={1.0} xmlns="http://www.w3.org/2000/svg" width="5120.000000pt" height="5120.000000pt" viewBox="0 0 5120.000000 5120.000000" preserveAspectRatio="xMidYMid meet">
  <g transform="translate(0.000000,5120.000000) scale(0.100000,-0.100000)" fill="#000000" stroke="none">
    <path d="M18850 44590 c-746 -71 -1429 -390 -1950 -910 -513 -513 -828 -1171
-904 -1885 -8 -77 -17 -229 -21 -338 -6 -233 -29 -382 -79 -521 -65 -182 -165
-319 -314 -430 -162 -122 -345 -198 -797 -332 -712 -211 -1047 -362 -1355
-611 -98 -80 -281 -268 -352 -364 -301 -403 -484 -932 -562 -1624 -33 -285
-53 -764 -36 -860 23 -136 126 -268 247 -317 l58 -23 6335 0 6335 0 58 23
c120 49 223 179 247 312 19 106 -2 590 -41 910 -137 1149 -567 1845 -1384
2240 -211 101 -404 171 -805 291 -570 170 -724 234 -902 378 -196 158 -313
389 -348 686 -5 50 -14 198 -20 330 -11 285 -35 454 -95 690 -192 759 -655
1406 -1318 1846 -394 261 -840 427 -1327 494 -137 19 -535 27 -670 15z" />
    <path d="M38425 41249 c-117 -17 -229 -65 -330 -142 -33 -25 -1357 -1343
-2941 -2929 -3149 -3151 -2933 -2926 -2991 -3105 -21 -61 -27 -105 -30 -203
-6 -154 9 -226 74 -360 39 -80 59 -108 137 -186 77 -76 106 -98 186 -137 202
-100 388 -111 592 -37 166 61 30 -70 2816 2714 1426 1425 2595 2593 2598 2596
6 6 404 -392 404 -405 0 -5 -3833 -3843 -8517 -8527 l-8518 -8518 1760 -1760
c968 -968 1763 -1760 1767 -1760 4 0 4207 4200 9340 9333 8020 8021 9337 9341
9360 9389 40 82 52 171 33 259 -8 39 -26 92 -41 118 -33 57 -3016 3047 -3089
3095 -79 52 -143 69 -244 64 -147 -8 -164 -19 -473 -326 l-267 -265 -39 34
c-21 19 -140 124 -263 234 -327 293 -690 615 -739 655 -100 83 -261 152 -400
170 -86 11 -103 11 -185 -1z" />
    <path d="M42695 41194 c-171 -30 -348 -109 -480 -215 -33 -26 -116 -104 -185
-173 l-125 -126 1098 -1098 1097 -1097 151 150 c212 211 293 341 350 558 27
102 36 293 19 409 -24 167 -99 347 -202 485 -67 89 -834 857 -918 918 -231
168 -528 238 -805 189z" />
    <path d="M10315 38943 c-554 -33 -1032 -154 -1510 -382 -658 -315 -1237 -829
-1626 -1446 -326 -517 -514 -1048 -591 -1675 -11 -85 -13 -2454 -13 -12680 l0
-12575 23 -160 c68 -479 204 -904 414 -1305 527 -1003 1459 -1736 2550 -2005
166 -41 373 -78 543 -97 178 -19 17852 -19 18030 0 842 93 1590 424 2222 984
499 442 895 1039 1108 1672 87 257 137 472 183 779 15 103 16 648 19 6967 l3
6855 -940 -940 -940 -940 -3 -5610 c-2 -4427 -5 -5627 -15 -5690 -67 -426
-194 -764 -408 -1085 -97 -147 -186 -254 -324 -390 -343 -341 -759 -569 -1231
-674 -270 -60 402 -56 -8689 -56 -9091 0 -8419 -4 -8689 56 -470 105 -887 333
-1227 669 -401 398 -644 883 -731 1460 -17 115 -18 566 -18 11160 l0 11040 23
57 c44 109 131 196 240 240 l57 23 10315 3 c7327 1 10330 -1 10367 -9 165 -33
291 -163 323 -329 6 -33 10 -433 10 -1084 l0 -1031 940 940 940 940 -3 1380
c-4 1530 1 1428 -72 1791 -242 1199 -1046 2229 -2159 2765 -397 191 -816 311
-1278 365 -123 15 -282 18 -1146 21 l-1002 4 21 -53 c142 -346 255 -811 303
-1248 39 -348 58 -866 37 -1010 -60 -405 -335 -722 -736 -847 l-90 -28 -6390
-3 c-5769 -2 -6398 -1 -6468 13 -336 67 -606 287 -743 603 -80 186 -96 347
-75 777 26 525 88 945 195 1319 44 150 125 386 152 438 8 15 14 29 14 33 0 5
-1822 4 -1915 -2z" />
    <path d="M10960 27184 c-235 -50 -430 -203 -535 -417 -53 -108 -75 -210 -75
-341 0 -228 78 -407 243 -562 121 -114 259 -181 421 -203 54 -8 1226 -11 3869
-11 4094 1 3859 -2 4009 53 95 35 169 81 254 160 116 108 194 241 229 389 22
93 19 267 -5 364 -67 267 -271 477 -545 561 -58 17 -218 18 -3930 20 -3291 1
-3880 -1 -3935 -13z" />
    <path d="M10960 23434 c-181 -39 -334 -134 -446 -277 -110 -141 -164 -296
-164 -472 0 -164 29 -272 108 -410 44 -75 188 -219 265 -264 79 -46 198 -87
291 -100 54 -8 1226 -11 3869 -11 4094 1 3859 -2 4009 53 93 34 168 81 249
155 168 155 250 340 250 567 0 353 -222 648 -566 752 -57 17 -226 18 -3930 20
-3291 1 -3880 -1 -3935 -13z" />
    <path d="M21292 21120 c-22 -47 -155 -330 -297 -630 -142 -300 -277 -585 -300
-635 -23 -49 -392 -830 -820 -1735 -1057 -2236 -1034 -2187 -1047 -2237 -30
-119 15 -273 106 -366 95 -98 265 -143 392 -105 27 9 1001 465 2164 1015 1163
550 2343 1107 2622 1239 279 131 508 241 508 244 0 3 -740 745 -1645 1650
l-1644 1644 -39 -84z" />
    <path d="M10955 19683 c-283 -60 -513 -283 -585 -567 -39 -155 -23 -355 41
-501 56 -129 191 -282 313 -354 77 -46 197 -87 290 -100 54 -8 1226 -11 3869
-11 4094 1 3859 -2 4009 53 97 35 171 82 255 161 116 109 193 240 228 388 22
93 19 267 -5 364 -67 267 -272 478 -545 561 -57 17 -226 18 -3930 20 -3409 1
-3878 0 -3940 -14z" />
  </g>
</svg>
