<svg width="24" height="25" viewBox="0 0 24 25" fill="none" xmlns="http://www.w3.org/2000/svg">
<path d="M0.700896 8.00119C2.90599 1.75715 9.75487 -1.51758 15.999 0.687509C22.2431 2.89256 25.5176 9.74233 23.3125 15.9864C21.9413 19.8691 18.7735 22.6043 15.0709 23.5875C5.8071 26.0548 -2.50511 17.0795 0.700896 8.00119Z" fill="#5AAAE7"/>
<path d="M15.7577 23.3831C15.5312 23.4581 15.3022 23.5263 15.0712 23.5876C5.80705 26.0549 -2.50493 17.0795 0.700801 8.00115C2.8803 1.82896 9.5982 -1.44202 15.7836 0.613953C12.3921 1.74266 9.5389 4.36985 8.25619 8.00119C5.88693 14.7107 9.80906 21.3644 15.7577 23.3831Z" fill="#3D9AE2"/>
<path d="M20.3136 10.1507L18.878 16.5023C18.6627 17.4516 18.0386 18.2567 17.1731 18.7024L14.3454 20.1542C13.6188 20.5279 12.773 19.9238 12.8906 19.1153L13.3785 15.7737C13.6982 13.5829 13.0024 12.0811 12.9034 11.6128C11.8659 8.10606 8.57383 7.51993 8.46352 7.45631L5.21462 6.46586C4.48499 6.24276 4.08591 5.45824 4.33643 4.73747L5.25676 2.08286C7.59645 0.481986 10.4147 -0.219418 13.2378 0.0651849L13.6359 0.850689C13.7408 1.05808 13.7825 1.28071 13.7678 1.49645C13.7379 1.92844 13.4835 2.33244 13.0647 2.53397L12.1218 2.98607C11.3432 3.36017 11.1353 4.37322 11.7045 5.02386C11.985 5.25825 13.7546 8.01338 17.6046 8.46693L19.2614 8.66256C19.9837 8.74788 20.474 9.44019 20.3136 10.1507Z" fill="#A4E276"/>
<path d="M13.7678 1.49645C11.4432 2.77817 9.53336 4.83259 8.46349 7.45631L5.21459 6.46585C4.48496 6.24276 4.08588 5.45824 4.3364 4.73747L5.25673 2.08286C7.50823 0.542365 10.3134 -0.229591 13.2377 0.065231L13.6359 0.850735C13.7408 1.05813 13.7825 1.28071 13.7678 1.49645Z" fill="#91DC5A"/>
<path d="M10.5298 22.1335C10.5284 22.7362 10.2067 22.8484 9.82821 23.2294C9.65907 23.4001 9.47418 23.5545 9.27659 23.6913C4.09139 22.4689 0.158013 17.7858 0.00457764 12.356C1.2652 12.3413 2.39836 12.7874 3.64768 10.9296C3.95315 10.4751 4.10321 9.89065 4.56262 9.53564C5.01763 9.18358 5.40551 9.10562 5.97134 9.21888C7.09367 9.44394 8.20184 10.2044 8.72501 11.2341C9.05499 11.8843 9.38155 13.0983 9.16975 13.8098C9.02119 14.308 8.72159 14.7453 8.48968 15.2057C7.85273 16.4688 7.45998 18.206 8.43867 19.3559C8.90891 19.9085 9.5468 20.2997 10.0121 20.8567C10.3028 21.2044 10.5318 21.6716 10.5298 22.1335Z" fill="#91DC5A"/>
<path d="M9.16969 13.8098C9.02113 14.308 8.72153 14.7453 8.48962 15.2057C8.38569 15.4117 8.2886 15.6299 8.2023 15.8564C7.57763 14.053 7.37807 12.0706 7.72422 10.0397C8.14098 10.3677 8.49159 10.7742 8.725 11.2341C9.05493 11.8843 9.38149 13.0983 9.16969 13.8098Z" fill="#A4E276"/>
</svg>
