<svg width="27" height="32" viewBox="0 0 27 32" fill="none" xmlns="http://www.w3.org/2000/svg">
<path d="M13.4994 31.4397C15.3299 31.4397 16.9062 30.334 17.5979 28.7559H9.40088C10.0925 30.334 11.6689 31.4397 13.4994 31.4397Z" fill="#020202"/>
<path d="M22.7439 15.6862V13.7262C22.7439 9.56194 19.9759 6.03242 16.1833 4.87961V3.58718C16.1833 2.1073 14.9793 0.90332 13.4995 0.90332C12.0196 0.90332 10.8156 2.1073 10.8156 3.58718V4.87961C7.023 6.03242 4.25505 9.56188 4.25505 13.7262V15.6862C4.25505 19.3441 2.86075 22.8126 0.329031 25.4528C0.0809232 25.7115 0.0112023 26.0933 0.151837 26.423C0.292471 26.7527 0.616324 26.9666 0.974769 26.9666H26.0242C26.3826 26.9666 26.7064 26.7527 26.847 26.423C26.9877 26.0933 26.9179 25.7115 26.6699 25.4528C24.1382 22.8126 22.7439 19.344 22.7439 15.6862ZM14.3941 4.52522C14.0996 4.49683 13.8012 4.4818 13.4995 4.4818C13.1977 4.4818 12.8993 4.49683 12.6048 4.52522V3.58718C12.6048 3.09389 13.0062 2.69256 13.4995 2.69256C13.9928 2.69256 14.3941 3.09389 14.3941 3.58718V4.52522Z" fill="#020202"/>
<path d="M25.1298 13.7261C25.1298 14.2201 25.5304 14.6207 26.0244 14.6207C26.5185 14.6207 26.9191 14.2201 26.9191 13.7261C26.9191 10.1416 25.5232 6.77169 22.9886 4.23711C22.6393 3.88779 22.0728 3.88773 21.7235 4.23711C21.3741 4.58649 21.3741 5.1529 21.7235 5.50228C23.9201 7.69893 25.1298 10.6195 25.1298 13.7261Z" fill="#020202"/>
<path d="M0.974699 14.6206C1.46877 14.6206 1.86932 14.2201 1.86932 13.726C1.86932 10.6195 3.07909 7.69896 5.27568 5.5023C5.62506 5.15293 5.62506 4.58651 5.27568 4.23713C4.92636 3.88775 4.35989 3.88775 4.01051 4.23713C1.47593 6.77171 0.0800781 10.1416 0.0800781 13.726C0.0800781 14.2201 0.48063 14.6206 0.974699 14.6206Z" fill="#020202"/>
</svg>
