<svg width={14} height={13} viewBox="0 0 14 13" fill="none" xmlns="http://www.w3.org/2000/svg">
  <path d="M5.00028 12.5C4.8114 12.5 4.65317 12.436 4.52562 12.308C4.39762 12.1804 4.33362 12.0222 4.33362 11.8333V11.1667H1.66695C1.30028 11.1667 0.986507 11.0362 0.725618 10.7753C0.464285 10.514 0.333618 10.2 0.333618 9.83333V1.83333C0.333618 1.46667 0.464285 1.15267 0.725618 0.891333C0.986507 0.630444 1.30028 0.5 1.66695 0.5H12.3336C12.7003 0.5 13.0143 0.630444 13.2756 0.891333C13.5365 1.15267 13.667 1.46667 13.667 1.83333V9.83333C13.667 10.2 13.5365 10.514 13.2756 10.7753C13.0143 11.0362 12.7003 11.1667 12.3336 11.1667H9.66695V11.8333C9.66695 12.0222 9.60317 12.1804 9.47562 12.308C9.34762 12.436 9.18917 12.5 9.00028 12.5H5.00028ZM1.66695 9.83333H12.3336V1.83333H1.66695V9.83333Z" fill="#1F2029" />
  <path d="M5.35895 7.45017V3.88351C5.35895 3.61684 5.47562 3.4224 5.70895 3.30017C5.94228 3.17795 6.17006 3.18906 6.39228 3.33351L9.15895 5.10017C9.37006 5.2224 9.47562 5.41128 9.47562 5.66684C9.47562 5.9224 9.37006 6.11129 9.15895 6.23351L6.39228 8.00017C6.17006 8.14462 5.94228 8.15573 5.70895 8.03351C5.47562 7.91128 5.35895 7.71684 5.35895 7.45017Z" fill="#1F2029" />
</svg>

